<mxfile host="Electron" modified="2023-12-03T06:25:45.338Z" agent="Mozilla/5.0 (Windows NT 10.0; Win64; x64) AppleWebKit/537.36 (KHTML, like Gecko) draw.io/21.2.8 Chrome/112.0.5615.165 Electron/24.2.0 Safari/537.36" etag="yvvv_oEcEfSGb_fQbL62" version="21.2.8" type="device">
  <diagram name="Page-1" id="U2sgMt6IpICBFfTSHYp9">
    <mxGraphModel dx="1569" dy="697" grid="1" gridSize="10" guides="1" tooltips="1" connect="1" arrows="1" fold="1" page="1" pageScale="1" pageWidth="827" pageHeight="1169" math="0" shadow="0">
      <root>
        <mxCell id="0" />
        <mxCell id="1" parent="0" />
        <mxCell id="_CY4IeywhOAaGgWjiNTH-1" value="&lt;font style=&quot;font-size: 16px;&quot; face=&quot;Verdana&quot;&gt;wal.append()&lt;/font&gt;" style="rounded=0;whiteSpace=wrap;html=1;fillColor=#f5f5f5;fontColor=#333333;strokeColor=#000000;" vertex="1" parent="1">
          <mxGeometry x="-102" y="318" width="130" height="40" as="geometry" />
        </mxCell>
        <mxCell id="_CY4IeywhOAaGgWjiNTH-2" value="&lt;font style=&quot;font-size: 16px;&quot; face=&quot;Verdana&quot;&gt;RingBufferTruck&lt;br&gt;(FSWALEntry)&lt;br&gt;&lt;/font&gt;" style="rounded=0;whiteSpace=wrap;html=1;fillColor=#f5f5f5;fontColor=#333333;strokeColor=#000000;" vertex="1" parent="1">
          <mxGeometry x="98" y="240" width="150" height="50" as="geometry" />
        </mxCell>
        <mxCell id="_CY4IeywhOAaGgWjiNTH-3" value="&lt;font style=&quot;font-size: 16px;&quot; face=&quot;Verdana&quot;&gt;RingBufferTruck&lt;br&gt;(FSWALEntry)&lt;br&gt;&lt;/font&gt;" style="rounded=0;whiteSpace=wrap;html=1;fillColor=#f5f5f5;fontColor=#333333;strokeColor=#000000;" vertex="1" parent="1">
          <mxGeometry x="98" y="313" width="150" height="50" as="geometry" />
        </mxCell>
        <mxCell id="_CY4IeywhOAaGgWjiNTH-4" value="&lt;font style=&quot;font-size: 16px;&quot; face=&quot;Verdana&quot;&gt;RingBufferTruck&lt;br&gt;(FSWALEntry)&lt;br&gt;&lt;/font&gt;" style="rounded=0;whiteSpace=wrap;html=1;fillColor=#f5f5f5;fontColor=#333333;strokeColor=#000000;" vertex="1" parent="1">
          <mxGeometry x="98" y="400" width="150" height="50" as="geometry" />
        </mxCell>
        <mxCell id="_CY4IeywhOAaGgWjiNTH-5" value="&lt;font style=&quot;font-size: 18px;&quot;&gt;...&lt;/font&gt;" style="text;html=1;align=center;verticalAlign=middle;resizable=0;points=[];autosize=1;strokeColor=none;fillColor=none;" vertex="1" parent="1">
          <mxGeometry x="153" y="356" width="40" height="40" as="geometry" />
        </mxCell>
        <mxCell id="_CY4IeywhOAaGgWjiNTH-6" value="" style="endArrow=classic;html=1;rounded=0;exitX=1;exitY=0.5;exitDx=0;exitDy=0;entryX=0;entryY=0.5;entryDx=0;entryDy=0;" edge="1" parent="1" source="_CY4IeywhOAaGgWjiNTH-1" target="_CY4IeywhOAaGgWjiNTH-2">
          <mxGeometry width="50" height="50" relative="1" as="geometry">
            <mxPoint x="218" y="370" as="sourcePoint" />
            <mxPoint x="268" y="320" as="targetPoint" />
          </mxGeometry>
        </mxCell>
        <mxCell id="_CY4IeywhOAaGgWjiNTH-7" value="" style="endArrow=classic;html=1;rounded=0;exitX=1;exitY=0.5;exitDx=0;exitDy=0;entryX=0;entryY=0.5;entryDx=0;entryDy=0;" edge="1" parent="1" source="_CY4IeywhOAaGgWjiNTH-1" target="_CY4IeywhOAaGgWjiNTH-3">
          <mxGeometry width="50" height="50" relative="1" as="geometry">
            <mxPoint x="218" y="370" as="sourcePoint" />
            <mxPoint x="268" y="320" as="targetPoint" />
          </mxGeometry>
        </mxCell>
        <mxCell id="_CY4IeywhOAaGgWjiNTH-8" value="" style="endArrow=classic;html=1;rounded=0;exitX=1;exitY=0.5;exitDx=0;exitDy=0;entryX=0;entryY=0.5;entryDx=0;entryDy=0;" edge="1" parent="1" source="_CY4IeywhOAaGgWjiNTH-1" target="_CY4IeywhOAaGgWjiNTH-4">
          <mxGeometry width="50" height="50" relative="1" as="geometry">
            <mxPoint x="218" y="370" as="sourcePoint" />
            <mxPoint x="268" y="320" as="targetPoint" />
          </mxGeometry>
        </mxCell>
        <mxCell id="_CY4IeywhOAaGgWjiNTH-9" value="&lt;font style=&quot;font-size: 16px;&quot; face=&quot;Verdana&quot;&gt;wal.sync()&lt;/font&gt;" style="rounded=0;whiteSpace=wrap;html=1;fillColor=#cce5ff;strokeColor=#1f2123;" vertex="1" parent="1">
          <mxGeometry x="-102" y="510" width="130" height="40" as="geometry" />
        </mxCell>
        <mxCell id="_CY4IeywhOAaGgWjiNTH-10" value="&lt;font style=&quot;font-size: 16px;&quot; face=&quot;Verdana&quot;&gt;RingBufferTruck&lt;br&gt;(SyncFuture)&lt;br&gt;&lt;/font&gt;" style="rounded=0;whiteSpace=wrap;html=1;fillColor=#cce5ff;strokeColor=#36393d;" vertex="1" parent="1">
          <mxGeometry x="98" y="470" width="150" height="50" as="geometry" />
        </mxCell>
        <mxCell id="_CY4IeywhOAaGgWjiNTH-11" value="&lt;font style=&quot;font-size: 16px;&quot; face=&quot;Verdana&quot;&gt;RingBufferTruck&lt;br&gt;(SyncFuture)&lt;br&gt;&lt;/font&gt;" style="rounded=0;whiteSpace=wrap;html=1;fillColor=#cce5ff;strokeColor=#36393d;" vertex="1" parent="1">
          <mxGeometry x="98" y="540" width="150" height="50" as="geometry" />
        </mxCell>
        <mxCell id="_CY4IeywhOAaGgWjiNTH-14" value="" style="endArrow=classic;html=1;rounded=0;exitX=1;exitY=0.5;exitDx=0;exitDy=0;entryX=0;entryY=0.5;entryDx=0;entryDy=0;" edge="1" parent="1" source="_CY4IeywhOAaGgWjiNTH-9" target="_CY4IeywhOAaGgWjiNTH-10">
          <mxGeometry width="50" height="50" relative="1" as="geometry">
            <mxPoint x="218" y="600" as="sourcePoint" />
            <mxPoint x="268" y="550" as="targetPoint" />
          </mxGeometry>
        </mxCell>
        <mxCell id="_CY4IeywhOAaGgWjiNTH-15" value="" style="endArrow=classic;html=1;rounded=0;exitX=1;exitY=0.5;exitDx=0;exitDy=0;entryX=0;entryY=0.5;entryDx=0;entryDy=0;" edge="1" parent="1" source="_CY4IeywhOAaGgWjiNTH-9" target="_CY4IeywhOAaGgWjiNTH-11">
          <mxGeometry width="50" height="50" relative="1" as="geometry">
            <mxPoint x="218" y="600" as="sourcePoint" />
            <mxPoint x="268" y="550" as="targetPoint" />
          </mxGeometry>
        </mxCell>
        <mxCell id="_CY4IeywhOAaGgWjiNTH-18" value="&lt;b&gt;&lt;font style=&quot;font-size: 16px;&quot; face=&quot;Verdana&quot;&gt;Disruptor&lt;/font&gt;&lt;/b&gt;" style="rounded=0;whiteSpace=wrap;html=1;fillColor=#dae8fc;strokeColor=#6c8ebf;gradientColor=#7ea6e0;" vertex="1" parent="1">
          <mxGeometry x="310" y="400" width="170" height="50" as="geometry" />
        </mxCell>
        <mxCell id="_CY4IeywhOAaGgWjiNTH-19" value="" style="endArrow=classicThin;html=1;rounded=0;exitX=1;exitY=0.5;exitDx=0;exitDy=0;entryX=0;entryY=0.5;entryDx=0;entryDy=0;endFill=1;" edge="1" parent="1" source="_CY4IeywhOAaGgWjiNTH-2" target="_CY4IeywhOAaGgWjiNTH-18">
          <mxGeometry width="50" height="50" relative="1" as="geometry">
            <mxPoint x="150" y="370" as="sourcePoint" />
            <mxPoint x="200" y="320" as="targetPoint" />
          </mxGeometry>
        </mxCell>
        <mxCell id="_CY4IeywhOAaGgWjiNTH-20" value="" style="endArrow=classicThin;html=1;rounded=0;exitX=1;exitY=0.5;exitDx=0;exitDy=0;entryX=0;entryY=0.5;entryDx=0;entryDy=0;endFill=1;" edge="1" parent="1" source="_CY4IeywhOAaGgWjiNTH-3" target="_CY4IeywhOAaGgWjiNTH-18">
          <mxGeometry width="50" height="50" relative="1" as="geometry">
            <mxPoint x="250" y="400" as="sourcePoint" />
            <mxPoint x="200" y="320" as="targetPoint" />
          </mxGeometry>
        </mxCell>
        <mxCell id="_CY4IeywhOAaGgWjiNTH-21" value="" style="endArrow=classicThin;html=1;rounded=0;exitX=1;exitY=0.5;exitDx=0;exitDy=0;entryX=0;entryY=0.5;entryDx=0;entryDy=0;endFill=1;" edge="1" parent="1" source="_CY4IeywhOAaGgWjiNTH-4" target="_CY4IeywhOAaGgWjiNTH-18">
          <mxGeometry width="50" height="50" relative="1" as="geometry">
            <mxPoint x="150" y="370" as="sourcePoint" />
            <mxPoint x="200" y="320" as="targetPoint" />
          </mxGeometry>
        </mxCell>
        <mxCell id="_CY4IeywhOAaGgWjiNTH-22" value="" style="endArrow=classicThin;html=1;rounded=0;exitX=1;exitY=0.5;exitDx=0;exitDy=0;entryX=0;entryY=0.5;entryDx=0;entryDy=0;endFill=1;" edge="1" parent="1" source="_CY4IeywhOAaGgWjiNTH-10" target="_CY4IeywhOAaGgWjiNTH-18">
          <mxGeometry width="50" height="50" relative="1" as="geometry">
            <mxPoint x="150" y="370" as="sourcePoint" />
            <mxPoint x="200" y="320" as="targetPoint" />
          </mxGeometry>
        </mxCell>
        <mxCell id="_CY4IeywhOAaGgWjiNTH-23" value="" style="endArrow=classicThin;html=1;rounded=0;exitX=1;exitY=0.5;exitDx=0;exitDy=0;entryX=0;entryY=0.5;entryDx=0;entryDy=0;endFill=1;" edge="1" parent="1" source="_CY4IeywhOAaGgWjiNTH-11" target="_CY4IeywhOAaGgWjiNTH-18">
          <mxGeometry width="50" height="50" relative="1" as="geometry">
            <mxPoint x="150" y="370" as="sourcePoint" />
            <mxPoint x="200" y="320" as="targetPoint" />
          </mxGeometry>
        </mxCell>
        <mxCell id="_CY4IeywhOAaGgWjiNTH-30" style="edgeStyle=orthogonalEdgeStyle;rounded=0;orthogonalLoop=1;jettySize=auto;html=1;exitX=1;exitY=0.5;exitDx=0;exitDy=0;entryX=0;entryY=0.5;entryDx=0;entryDy=0;" edge="1" parent="1" source="_CY4IeywhOAaGgWjiNTH-24" target="_CY4IeywhOAaGgWjiNTH-29">
          <mxGeometry relative="1" as="geometry" />
        </mxCell>
        <mxCell id="_CY4IeywhOAaGgWjiNTH-24" value="&lt;font style=&quot;font-size: 16px;&quot; face=&quot;Verdana&quot;&gt;FSWALEntry&lt;br&gt;&lt;/font&gt;" style="rounded=0;whiteSpace=wrap;html=1;fillColor=#f5f5f5;fontColor=#333333;strokeColor=#000000;" vertex="1" parent="1">
          <mxGeometry x="540" y="340" width="150" height="40" as="geometry" />
        </mxCell>
        <mxCell id="_CY4IeywhOAaGgWjiNTH-33" style="edgeStyle=orthogonalEdgeStyle;rounded=0;orthogonalLoop=1;jettySize=auto;html=1;exitX=1;exitY=0.5;exitDx=0;exitDy=0;" edge="1" parent="1" source="_CY4IeywhOAaGgWjiNTH-25" target="_CY4IeywhOAaGgWjiNTH-32">
          <mxGeometry relative="1" as="geometry" />
        </mxCell>
        <mxCell id="_CY4IeywhOAaGgWjiNTH-25" value="&lt;font style=&quot;font-size: 16px;&quot; face=&quot;Verdana&quot;&gt;SyncFuture&lt;br&gt;&lt;/font&gt;" style="rounded=0;whiteSpace=wrap;html=1;fillColor=#cce5ff;strokeColor=#111213;" vertex="1" parent="1">
          <mxGeometry x="540" y="460" width="150" height="40" as="geometry" />
        </mxCell>
        <mxCell id="_CY4IeywhOAaGgWjiNTH-26" value="" style="endArrow=classic;html=1;rounded=0;exitX=1;exitY=0.5;exitDx=0;exitDy=0;entryX=0;entryY=0.5;entryDx=0;entryDy=0;" edge="1" parent="1" source="_CY4IeywhOAaGgWjiNTH-18" target="_CY4IeywhOAaGgWjiNTH-24">
          <mxGeometry width="50" height="50" relative="1" as="geometry">
            <mxPoint x="400" y="460" as="sourcePoint" />
            <mxPoint x="450" y="410" as="targetPoint" />
          </mxGeometry>
        </mxCell>
        <mxCell id="_CY4IeywhOAaGgWjiNTH-28" value="" style="endArrow=classic;html=1;rounded=0;exitX=1;exitY=0.5;exitDx=0;exitDy=0;entryX=0;entryY=0.5;entryDx=0;entryDy=0;" edge="1" parent="1" source="_CY4IeywhOAaGgWjiNTH-18" target="_CY4IeywhOAaGgWjiNTH-25">
          <mxGeometry width="50" height="50" relative="1" as="geometry">
            <mxPoint x="400" y="460" as="sourcePoint" />
            <mxPoint x="450" y="410" as="targetPoint" />
          </mxGeometry>
        </mxCell>
        <mxCell id="_CY4IeywhOAaGgWjiNTH-29" value="&lt;font style=&quot;font-size: 16px;&quot; face=&quot;Verdana&quot;&gt;WAL File&lt;br&gt;&lt;/font&gt;" style="rounded=0;whiteSpace=wrap;html=1;fillColor=#f5f5f5;fontColor=#333333;strokeColor=#000000;" vertex="1" parent="1">
          <mxGeometry x="800" y="340" width="150" height="40" as="geometry" />
        </mxCell>
        <mxCell id="_CY4IeywhOAaGgWjiNTH-31" value="&lt;font style=&quot;font-size: 14px;&quot; face=&quot;Verdana&quot;&gt;append&lt;/font&gt;" style="text;html=1;align=center;verticalAlign=middle;resizable=0;points=[];autosize=1;strokeColor=none;fillColor=none;" vertex="1" parent="1">
          <mxGeometry x="704" y="333" width="80" height="30" as="geometry" />
        </mxCell>
        <mxCell id="_CY4IeywhOAaGgWjiNTH-32" value="&lt;font style=&quot;font-size: 16px;&quot; face=&quot;Verdana&quot;&gt;Sync to WAL&lt;br&gt;&lt;/font&gt;" style="rounded=0;whiteSpace=wrap;html=1;fillColor=#cce5ff;strokeColor=#111213;" vertex="1" parent="1">
          <mxGeometry x="800" y="460" width="150" height="40" as="geometry" />
        </mxCell>
        <mxCell id="_CY4IeywhOAaGgWjiNTH-34" value="&lt;font style=&quot;font-size: 14px;&quot; face=&quot;Verdana&quot;&gt;SyncRunner&lt;/font&gt;" style="text;html=1;align=center;verticalAlign=middle;resizable=0;points=[];autosize=1;strokeColor=none;fillColor=none;" vertex="1" parent="1">
          <mxGeometry x="690" y="450" width="110" height="30" as="geometry" />
        </mxCell>
      </root>
    </mxGraphModel>
  </diagram>
</mxfile>
